#!OML:ASF E:/inclinewalkrobotboard/Project1/Captureday1/Session1/subject1.ASF
:FULLY-SPECIFIED
:DEGREES
76
root 0 0 0 1.8438312456895876 -10.617205420565451 0.899873735759156
lowerback -0.25307524009691207 -1.6820013383612198 -2.686814079747598
upperback -0.47128176498573116 -2.1970515170931257 1.6827593295716454
thorax -0.23685036624479916 -1.0962921574783553 3.169686949967541
lowerneck -25.20725591607263 -1.8267990004170043 -7.789628431801415
upperneck 26.763389779997514 -0.053944879504524756 2.248330434980618
head 13.199909239668855 -0.6351591061975527 2.2798807711544957
rclavicle -6.523108679101914E-15 1.960608691471159E-15
rhumerus -31.65873847753851 -3.051428849903551 -81.31987828692041
rradius 30.946810872925344
rwrist 18.811616473219235
rhand -17.977956654763954 9.348534539031405
rfingers 7.125019999999927
rthumb 8.286522318997445 -20.4232618103474
lclavicle -7.844236798483818E-15 4.2568083979558225E-15
lhumerus -21.41453085867179 -1.4763773192336873 91.73577250945945
lradius 61.531799788969515
lwrist 2.447028218952082
lhand -28.136923562841048 21.096414231355467
lfingers 7.125020000000007
lthumb -1.5437764717521478 51.10072293490346
rfemur -12.036682294445452 0.7247778731575609 23.342972894666115
rtibia 70.16650612992903
rfoot 4.690621992344012 -4.244811099495239
rtoes 10.419961336029012
lfemur -15.277317214744771 -2.837370407171772 -22.485456350496055
ltibia 31.165434898056525
lfoot -7.0914062587457325 -2.054520033675818
ltoes 9.397377089970266
77
root 0 0 0 1.8731616500984978 -10.631700825562802 0.8826313021670886
lowerback -0.23359198744175158 -1.700984953849141 -2.67487170840329
upperback -0.40954531905127345 -2.223560946108893 1.6766358437756164
thorax -0.17615113507762525 -1.1123951045259541 3.1561271975685545
lowerneck -25.069589271223588 -1.792731494385582 -7.819111929164357
upperneck 27.146546607262614 -0.00821184765016103 2.201274597011253
head 13.305209060283484 -0.6261255531230979 2.279023827049149
rclavicle -4.265184214720748E-15 1.962564556111816E-15
rhumerus -31.926181356795965 -3.858773399907409 -81.16489331004972
rradius 30.761664767804323
rwrist 19.03775407390982
rhand -17.792600331503714 9.300585987308548
rfingers 7.1250199999999255
rthumb 8.464775921529922 -20.465208679105633
lclavicle -6.68999543296326E-15 4.123256515782845E-15
lhumerus -21.81991517975045 -2.459487258730743 91.77823585652266
lradius 61.96932139060501
lwrist 2.7864709032320123
lhand -27.95685902974997 21.396464485616043
lfingers 7.125020000000006
lthumb -1.3703638648802414 51.41850386760955
rfemur -21.361583414856263 -0.9041731763730461 20.430012840090527
rtibia 72.90627241493257
rfoot -1.7805707386506686 -6.356023905120239
rtoes 6.615724641608692
lfemur -10.402497372523948 -3.127333718674347 -25.61251035729882
ltibia 25.90068862115382
lfoot -13.343453440181204 1.181938825163654
ltoes 10.168559096630563
78
root 0 0 0 1.9178219445375881 -10.669733508023642 0.8825470546567894
lowerback -0.2431686863825171 -1.7314808788662144 -2.6751134585495966
upperback -0.3437725663455956 -2.2645926175446847 1.6737419431630363
thorax -0.09175017872328683 -1.1363544899232467 3.153119791715502
lowerneck -25.064392777881476 -1.7835598217515003 -7.869461329857476
upperneck 27.388748771612086 0.011627354333860085 2.199378992935289
head 13.379028714710174 -0.6208196768685939 2.2912811364278314
rclavicle -3.099205612147579E-15 1.5288612613825927E-15
rhumerus -32.12471191950331 -3.6760812429875096 -80.82526056124902
rradius 30.547690554394467
rwrist 19.100835078510666
rhand -17.82551689483556 9.316156923653974
rfingers 7.1250199999999255
rthumb 8.433316362671228 -20.455332413543626
lclavicle -6.402702942180751E-15 3.7174450375189155E-15
lhumerus -22.526962501714607 -4.359022949098586 91.91099806269919
lradius 62.672730370763134
lwrist 3.3369089109423573
lhand -27.717899704303676 21.75044468297124
lfingers 7.125020000000003
lthumb -1.1428955620284702 51.79666252309591
rfemur -28.131407436460115 -1.1298408906563555 19.991949453256815
rtibia 65.97114444583832
rfoot -4.693753424870874 -7.666979027387724
rtoes 2.9309500789103033
lfemur -1.9960874318584274 -3.634491890196115 -28.529519765023792
ltibia 20.60982156715645
lfoot -20.396716454847052 2.450700535366114
ltoes 6.221928667863857
79
root 0 0 0 1.9461584616689374 -10.708066047925788 0.8875063394462004
lowerback -0.2609623662032772 -1.7553896529302135 -2.6771397854406502
upperback -0.3027561295612276 -2.296599324840118 1.6724404216748627
thorax -0.03337573874256483 -1.1544676081505623 3.1534337481019072
lowerneck -25.101634221203874 -1.782298150814733 -7.905342259437022
upperneck 27.5163599255043 0.02208172086763638 2.194600040206913
head 13.423691267847419 -0.6173912517636495 2.297156434544678
rclavicle -2.8447771810231843E-15 1.2307482050202103E-15
rhumerus -32.325117138712734 -3.2136671953266593 -80.40860556871421
rradius 30.30199781910954
rwrist 19.163164622529866
rhand -17.907934104846095 9.322933316011552
rfingers 7.125019999999928
rthumb 8.354629433018369 -20.459988150894365
lclavicle -5.563946107070994E-15 3.437519174828886E-15
lhumerus -22.945439455823774 -5.568458433147575 91.9362789294943
lradius 63.14204115588656
lwrist 3.7160552293559936
lhand -27.528536940567705 22.006910227992595
lfingers 7.125019999999999
lthumb -0.9621338480616393 52.0712174344748
rfemur -30.00213770319288 -0.0486455156175154 19.155465936647833
rtibia 56.454051836828626
rfoot -4.678219322322214 -9.11098121528937
rtoes 0.2829870525535205
lfemur 1.7315560343955025 -3.819317550113581 -29.359120467071648
ltibia 18.323509109369418
lfoot -21.859023467857348 1.8278888661730144
ltoes 3.197300295314683
